<?xml version="1.0" encoding="utf-8"?>
<!-- Generator: Adobe Illustrator 19.0.0, SVG Export Plug-In . SVG Version: 6.00 Build 0)  -->
<svg version="1.1" id="Layer_1" xmlns="http://www.w3.org/2000/svg" xmlns:xlink="http://www.w3.org/1999/xlink" x="0px" y="0px"
	 viewBox="0 0 234.2 130.9" enable-background="new 0 0 234.2 130.9" xml:space="preserve">
<g id="XMLID_2_">
	<g id="XMLID_33_">
		<path id="XMLID_69_" fill="#4EA6DC" d="M19.6,107.9l-7.3,9.8h-0.8l-7.2-9.8v16.4H0v-22.6h4.9l7.1,9.7l7.1-9.7h4.9v22.6h-4.3V107.9
			z"/>
		<path id="XMLID_66_" fill="#4EA6DC" d="M30.9,117.7c0.3,2,2,3.4,4.7,3.4c1.4,0,3.4-0.5,4.3-1.5l2.5,2.5c-1.7,1.7-4.4,2.6-6.8,2.6
			c-5.5,0-8.7-3.4-8.7-8.5c0-4.8,3.3-8.3,8.4-8.3c5.3,0,8.6,3.3,8,9.8H30.9z M39.6,114.4c-0.3-2.1-1.9-3.1-4.1-3.1
			c-2.1,0-3.9,1-4.4,3.1H39.6z"/>
		<path id="XMLID_63_" fill="#4EA6DC" d="M62.9,101.7v22.5h-3.7l-0.3-2.2c-1.2,1.9-3.2,2.5-5.1,2.5c-4.7,0-8.2-3.1-8.2-8.3
			c0-5.5,3.4-8.3,8.1-8.3c1.7,0,4.3,0.9,5.2,2.5v-8.8H62.9z M49.6,116.3c0,2.8,2,4.7,4.5,4.7c2.5,0,4.6-1.8,4.6-4.7
			c0-2.8-2.1-4.6-4.6-4.6C51.6,111.6,49.6,113.4,49.6,116.3z"/>
		<path id="XMLID_61_" fill="#96CB50" d="M80.5,107.1c-0.8-1.3-2.9-2.5-5.3-2.5c-3.2,0-4.7,1.3-4.7,3c0,2,2.3,2.5,5,2.8
			c4.7,0.6,9.1,1.8,9.1,7.2c0,5-4.4,7.2-9.5,7.2c-4.6,0-8.2-1.4-9.8-5.5l3.5-1.8c1,2.5,3.6,3.6,6.3,3.6c2.7,0,5.2-0.9,5.2-3.4
			c0-2.1-2.2-3-5.2-3.3c-4.6-0.5-8.9-1.8-8.9-6.8c0-4.6,4.6-6.5,8.7-6.6c3.5,0,7.2,1,8.9,4.5L80.5,107.1z"/>
		<path id="XMLID_58_" fill="#96CB50" d="M87.9,130.9v-22.5h3.7l0.3,2.2c1.2-1.8,3.4-2.5,5.2-2.5c4.9,0,8.2,3.6,8.2,8.3
			c0,4.6-2.9,8.3-8,8.3c-1.7,0-4.2-0.5-5.3-2.3v8.5H87.9z M101.2,116.3c0-2.5-1.7-4.5-4.5-4.5c-2.8,0-4.5,2-4.5,4.5
			c0,2.5,1.8,4.5,4.5,4.5C99.4,120.8,101.2,118.8,101.2,116.3z"/>
		<path id="XMLID_55_" fill="#96CB50" d="M111.4,117.7c0.3,2,2,3.4,4.7,3.4c1.4,0,3.4-0.5,4.3-1.5l2.5,2.5c-1.7,1.7-4.4,2.6-6.8,2.6
			c-5.5,0-8.7-3.4-8.7-8.5c0-4.8,3.3-8.3,8.4-8.3c5.3,0,8.6,3.3,8,9.8H111.4z M120,114.4c-0.3-2.1-1.9-3.1-4.1-3.1
			c-2.1,0-3.9,1-4.4,3.1H120z"/>
		<path id="XMLID_53_" fill="#96CB50" d="M140.4,122.2c-1.8,1.8-3.8,2.5-6.1,2.5c-4.6,0-8.4-2.8-8.4-8.4c0-5.6,3.8-8.4,8.4-8.4
			c2.3,0,4,0.6,5.7,2.4l-2.5,2.6c-0.9-0.8-2.1-1.3-3.2-1.3c-2.6,0-4.6,1.9-4.6,4.7c0,3,2.1,4.6,4.5,4.6c1.3,0,2.5-0.4,3.5-1.3
			L140.4,122.2z"/>
		<path id="XMLID_50_" fill="#96CB50" d="M146.5,103.9c0,3.1-4.6,3.1-4.6,0S146.5,100.8,146.5,103.9z M142.2,108.3v15.9h3.9v-15.9
			H142.2z"/>
		<path id="XMLID_47_" fill="#96CB50" d="M162.3,108.4h3.8v15.9h-3.7l-0.2-2.3c-0.9,1.9-3.4,2.8-5.2,2.8c-4.7,0-8.2-2.9-8.2-8.4
			c0-5.5,3.6-8.3,8.3-8.3c2.1,0,4.2,1,5.1,2.6L162.3,108.4z M152.7,116.3c0,3,2.1,4.8,4.7,4.8c6.2,0,6.2-9.6,0-9.6
			C154.8,111.5,152.7,113.3,152.7,116.3z"/>
		<path id="XMLID_45_" fill="#96CB50" d="M173.2,101.7v22.5h-3.9v-22.5H173.2z"/>
		<path id="XMLID_42_" fill="#96CB50" d="M181,103.9c0,3.1-4.6,3.1-4.6,0S181,100.8,181,103.9z M176.7,108.3v15.9h3.9v-15.9H176.7z"
			/>
		<path id="XMLID_40_" fill="#96CB50" d="M196.5,108.4v1.9l-7.3,10.1h7.4v3.9h-13.4v-1.6l7.6-10.7h-7v-3.6H196.5z"/>
		<path id="XMLID_37_" fill="#96CB50" d="M202.2,117.7c0.3,2,2,3.4,4.7,3.4c1.4,0,3.4-0.5,4.3-1.5l2.5,2.5c-1.7,1.7-4.4,2.6-6.8,2.6
			c-5.5,0-8.7-3.4-8.7-8.5c0-4.8,3.3-8.3,8.4-8.3c5.3,0,8.6,3.3,8,9.8H202.2z M210.9,114.4c-0.3-2.1-1.9-3.1-4.1-3.1
			c-2.1,0-3.9,1-4.4,3.1H210.9z"/>
		<path id="XMLID_34_" fill="#96CB50" d="M234.2,101.7v22.5h-3.7l-0.3-2.2c-1.2,1.9-3.2,2.5-5.1,2.5c-4.7,0-8.2-3.1-8.2-8.3
			c0-5.5,3.4-8.3,8.1-8.3c1.7,0,4.3,0.9,5.2,2.5v-8.8H234.2z M220.9,116.3c0,2.8,2,4.7,4.5,4.7c2.5,0,4.6-1.8,4.6-4.7
			c0-2.8-2.1-4.6-4.6-4.6C222.9,111.6,220.9,113.4,220.9,116.3z"/>
	</g>
	<g id="XMLID_3_">
		<linearGradient id="XMLID_97_" gradientUnits="userSpaceOnUse" x1="226.2285" y1="61.4735" x2="161.2086" y2="82.4477">
			<stop  offset="5.620217e-03" style="stop-color:#68D3F3"/>
			<stop  offset="0.3717" style="stop-color:#11B3C7"/>
			<stop  offset="1" style="stop-color:#28729F"/>
		</linearGradient>
		<path id="XMLID_32_" opacity="0.9" fill="url(#XMLID_97_)" d="M232.3,62.2v11.4l0,10.7v0.1c-0.1,1.6-0.8,3-2,4
			c-0.2,0.2-0.5,0.4-0.8,0.5c-0.1,0.1-0.3,0.2-0.4,0.2c-0.1,0.1-0.3,0.1-0.4,0.2c-0.2,0.1-0.4,0.1-0.6,0.2c-0.1,0-0.1,0-0.2,0
			c-0.2,0-0.4,0.1-0.6,0.1c-0.1,0-0.1,0-0.2,0c-0.1,0-0.3,0-0.4,0h-80.5c0,0-4.2-0.7-6.3-6.5c0,0,0,0,0-0.1
			c-0.2-0.6-0.4-1.2-0.6-1.9l-5.5-18.5h90.8c0,0,3.8,0.2,4.5-2.1c0.5-2.1-0.2-4.2-5.1-7.2l3.5,2.2l1.7,1c0.3,0.2,0.7,0.6,1.1,0.9
			c0.8,0.8,1.2,1.6,1.2,1.6c0,0.1,0.1,0.1,0.1,0.2c0,0.1,0.1,0.2,0.1,0.3c0.3,0.7,0.4,1.4,0.4,1.9v0C232.2,61.7,232.3,62,232.3,62.2
			z"/>
		<linearGradient id="XMLID_98_" gradientUnits="userSpaceOnUse" x1="81.2041" y1="89.5515" x2="81.2041" y2="89.5515">
			<stop  offset="0" style="stop-color:#00E5B5"/>
			<stop  offset="1" style="stop-color:#00A195"/>
		</linearGradient>
		<path id="XMLID_31_" fill="url(#XMLID_98_)" d="M81.2,89.6"/>
		<linearGradient id="XMLID_99_" gradientUnits="userSpaceOnUse" x1="102.2441" y1="12.5195" x2="82.3186" y2="86.9777">
			<stop  offset="0" style="stop-color:#68D3F3"/>
			<stop  offset="0.4745" style="stop-color:#4CF5D8"/>
			<stop  offset="1" style="stop-color:#00A195"/>
		</linearGradient>
		<path id="XMLID_30_" fill="url(#XMLID_99_)" d="M81.7,89.5h-0.2C81.5,89.5,81.6,89.6,81.7,89.5z"/>
		<linearGradient id="XMLID_100_" gradientUnits="userSpaceOnUse" x1="105.524" y1="13.3972" x2="85.5985" y2="87.8554">
			<stop  offset="0" style="stop-color:#68D3F3"/>
			<stop  offset="0.4745" style="stop-color:#4CF5D8"/>
			<stop  offset="1" style="stop-color:#00A195"/>
		</linearGradient>
		<path id="XMLID_29_" fill="url(#XMLID_100_)" d="M86.1,85.9c0,0-0.1,0.2-0.1,0.4C86.1,86.1,86.1,86,86.1,85.9z"/>
		<path id="XMLID_28_" fill="none" d="M83.5,89.5h-1.2C82.5,89.6,82.9,89.6,83.5,89.5z"/>
		<path id="XMLID_27_" fill="none" d="M86.9,87c0.2-0.4,0.4-0.7,0.5-1.2C87.3,86,87.2,86.4,86.9,87z"/>
		<path id="XMLID_26_" fill="none" d="M86.1,85.9c0,0-0.1,0.2-0.1,0.4C86.1,86.1,86.1,86,86.1,85.9z"/>
		<linearGradient id="XMLID_101_" gradientUnits="userSpaceOnUse" x1="106.719" y1="13.717" x2="86.7935" y2="88.1752">
			<stop  offset="0" style="stop-color:#68D3F3"/>
			<stop  offset="0.4745" style="stop-color:#4CF5D8"/>
			<stop  offset="1" style="stop-color:#00A195"/>
		</linearGradient>
		<path id="XMLID_25_" fill="url(#XMLID_101_)" d="M87.4,85.8C87.4,85.7,87.5,85.7,87.4,85.8L87.4,85.8l0.1-0.2l0,0
			C87.5,85.7,87.4,85.7,87.4,85.8z"/>
		<linearGradient id="XMLID_102_" gradientUnits="userSpaceOnUse" x1="86.1169" y1="89.6391" x2="87.0925" y2="86.7714">
			<stop  offset="0" style="stop-color:#4CF5D8"/>
			<stop  offset="1" style="stop-color:#68D3F3"/>
		</linearGradient>
		<path id="XMLID_24_" fill="url(#XMLID_102_)" d="M87.4,85.8C87.4,85.7,87.5,85.7,87.4,85.8L87.4,85.8l0.1-0.2l0,0
			C87.5,85.7,87.4,85.7,87.4,85.8z"/>
		<linearGradient id="XMLID_103_" gradientUnits="userSpaceOnUse" x1="102.8074" y1="12.6702" x2="82.882" y2="87.1284">
			<stop  offset="0" style="stop-color:#68D3F3"/>
			<stop  offset="0.4745" style="stop-color:#4CF5D8"/>
			<stop  offset="1" style="stop-color:#00A195"/>
		</linearGradient>
		<path id="XMLID_23_" fill="url(#XMLID_103_)" d="M82.2,89.5C82.2,89.5,82.2,89.5,82.2,89.5l0.1,0C82.2,89.5,82.2,89.5,82.2,89.5z"
			/>
		<linearGradient id="XMLID_104_" gradientUnits="userSpaceOnUse" x1="82.609" y1="88.4457" x2="83.5846" y2="85.578">
			<stop  offset="0" style="stop-color:#4CF5D8"/>
			<stop  offset="1" style="stop-color:#68D3F3"/>
		</linearGradient>
		<path id="XMLID_22_" fill="url(#XMLID_104_)" d="M82.2,89.5C82.2,89.5,82.2,89.5,82.2,89.5l0.1,0C82.2,89.5,82.2,89.5,82.2,89.5z"
			/>
		
			<linearGradient id="XMLID_105_" gradientUnits="userSpaceOnUse" x1="4832.5469" y1="-3159.9639" x2="4832.5469" y2="-3159.9639" gradientTransform="matrix(-1 0 0 -1 4968.3354 -3134.5669)">
			<stop  offset="0" style="stop-color:#11B3C7"/>
			<stop  offset="1" style="stop-color:#28729F"/>
		</linearGradient>
		<path id="XMLID_21_" fill="url(#XMLID_105_)" d="M135.8,25.4"/>
		
			<linearGradient id="XMLID_106_" gradientUnits="userSpaceOnUse" x1="807.7197" y1="272.217" x2="807.7197" y2="272.217" gradientTransform="matrix(-5.606028e-07 1 -1 -0.2952 408.044 -701.3112)">
			<stop  offset="0" style="stop-color:#00E5B5"/>
			<stop  offset="1" style="stop-color:#00A195"/>
		</linearGradient>
		<path id="XMLID_20_" opacity="0.9" fill="url(#XMLID_106_)" d="M135.8,26.1"/>
		
			<linearGradient id="XMLID_107_" gradientUnits="userSpaceOnUse" x1="779.4231" y1="182.6574" x2="779.4231" y2="182.6574" gradientTransform="matrix(-5.606028e-07 1 -1 -0.2952 408.044 -701.3112)">
			<stop  offset="0.176" style="stop-color:#B7C815"/>
			<stop  offset="1" style="stop-color:#539A32"/>
		</linearGradient>
		<path id="XMLID_19_" fill="url(#XMLID_107_)" d="M225.4,24.2"/>
		<linearGradient id="XMLID_108_" gradientUnits="userSpaceOnUse" x1="114.0994" y1="40.2745" x2="134.7239" y2="82.7471">
			<stop  offset="0" style="stop-color:#B7C815"/>
			<stop  offset="0.4832" style="stop-color:#87B223"/>
			<stop  offset="1" style="stop-color:#539A32"/>
		</linearGradient>
		<path id="XMLID_18_" fill="url(#XMLID_108_)" d="M142.7,89.5L142.7,89.5l-21.2,0c-3.5,0-6.5-2.3-7.4-5.6L92.7,8.6
			c-0.4-1.1-1.5-4.1-3.2-4.1c-1.7,0-2.9,2.9-3.3,4.1l2-5.9c0,0,0.8-2.4,3.4-2.7h0c0,0,0,0,0,0h24.3l0.4,1.4l0,0c0,0,0,0.1,0,0.1
			l24.9,82.8c3.9,5.1,7.7,5.3,7.7,5.3H142.7z"/>
		<linearGradient id="XMLID_109_" gradientUnits="userSpaceOnUse" x1="67.2072" y1="63.5582" x2="42.213" y2="14.2689">
			<stop  offset="0" style="stop-color:#FD9700"/>
			<stop  offset="1" style="stop-color:#FF5411"/>
		</linearGradient>
		<path id="XMLID_17_" opacity="0.9" fill="url(#XMLID_109_)" d="M85.5,85.6c-1.5,0-2.6-3-3-4.1L57.9,0.4c-0.3-0.1-0.5-0.2-0.7-0.4
			H32.6C30.7,0,30,1.6,30,1.6l0,0.1c0,0,0,0,0,0l-0.3,1l-0.3,0.7c0-0.1,0.1-0.2,0.1-0.2l-1.6,4.8c0,0,1.2-3.6,2.7-3.6
			c1.3,0,2.2,2.6,2.4,3.3l0,0c0,0.1,0,0.1,0,0.1l0,0l23.4,79.2c0.3,0.6,1.1,2.3,2.6,2.3h21.9l0,0c0,0,0.5,0,1.1,0c0,0,0,0,0,0
			s0,0,0.1,0c0.4,0,0.8,0,1.2,0c1.2-0.2,3-1,4-3.9l1.5-4.6C89,81.1,87.4,85.6,85.5,85.6z"/>
		<linearGradient id="XMLID_110_" gradientUnits="userSpaceOnUse" x1="80.4949" y1="64.0913" x2="90.9819" y2="32.8923">
			<stop  offset="3.117028e-02" style="stop-color:#B9C814"/>
			<stop  offset="1" style="stop-color:#FED600"/>
		</linearGradient>
		<path id="XMLID_16_" opacity="0.9" fill="url(#XMLID_110_)" d="M84.1,89c0,0,0.1-0.1,0.1-0.1c0,0,0.6-0.5,1.1-1.3
			c0.3-0.4,0.5-0.8,0.6-1.1l28.3-83.6c0.5-1.5,0.8-2.2,1-2.5l0,0c0,0,0.3-0.4,0.6-0.4c0,0,0.1,0,0.1,0H91.9c-2.7,0-3.6,2.7-3.6,2.7
			L61.9,81.6h0c0,0-1.3,3.7-2.7,4v3.9h22.3c0.2,0,0.4,0,0.6,0c0,0,0,0,0,0c0.5,0,1.1-0.2,1.6-0.4C83.9,89,84,89,84.1,89z"/>
		<linearGradient id="XMLID_111_" gradientUnits="userSpaceOnUse" x1="92.1125" y1="73.7429" x2="104.6969" y2="29.4351">
			<stop  offset="0" style="stop-color:#B7C815"/>
			<stop  offset="3.117028e-02" style="stop-color:#B9C814"/>
			<stop  offset="1" style="stop-color:#FED600"/>
		</linearGradient>
		<path id="XMLID_13_" fill="url(#XMLID_111_)" d="M117.7,2.8c-0.5-1.5-0.9-2.2-1.3-2.5l0,0c-0.2-0.2-0.3-0.2-0.5-0.2
			c-0.4,0-0.6,0.4-0.6,0.4l0,0c-0.3,0.3-0.6,1-1,2.5L85.9,86.5c-0.1,0.4-0.4,0.8-0.6,1.1c-0.3,0.5-0.7,1-1.3,1.3
			c-0.1,0-0.1,0.1-0.2,0.1c-0.5,0.3-1,0.4-1.6,0.4c-0.2,0-0.4,0-0.5,0h0.4c0,0,0,0,0,0s0,0,0.1,0h1.2c1-0.1,2.4-0.7,3.4-2.6
			c0.3-0.5,0.5-1,0.5-1.2c0-0.1,0-0.1,0.1-0.2l0,0L114.7,6c0,0,0.6-1.5,1.2-1.5c0.1,0,0.5,0.2,0.9,1.3c0.4,1.2,0.7-1.2,0.9-2
			c0.1-0.1,0.2-0.2,0.3-0.3L117.7,2.8z M86,86.2l0.1-0.2c0,0,0,0,0,0c0,0.1-0.1,0.2-0.1,0.3C86,86.2,86,86.2,86,86.2z"/>
		<linearGradient id="XMLID_112_" gradientUnits="userSpaceOnUse" x1="234.0693" y1="78.7322" x2="177.9036" y2="40.8106">
			<stop  offset="0" style="stop-color:#00E5B5"/>
			<stop  offset="0.422" style="stop-color:#00C8A7"/>
			<stop  offset="1" style="stop-color:#00A195"/>
		</linearGradient>
		<path id="XMLID_12_" opacity="0.9" fill="url(#XMLID_112_)" d="M141.9,0c-3.4,0-6.1,2.7-6.1,6.1l0,0.1l0,22.2c0,3,2.7,4.7,2.7,4.7
			l86.1,49.7c0,0,0.9,0.6,1.9,1.3c1,0.8,2.9,1.8,1.9,3.3c0,0-0.9,1-2.9,1v0l0.7,1.3h0.9c0.2,0,0.4,0,0.6,0c0,0,0,0,0,0
			c0,0,0.1,0,0.1,0c0.1,0,0.1,0,0.2,0c0.2-0.1,0.4-0.1,0.6-0.2c0.1-0.1,0.3-0.1,0.4-0.2c0.1-0.1,0.3-0.2,0.4-0.2
			c0.3-0.2,0.5-0.4,0.8-0.6c0,0,0,0,0,0c1.1-1,1.9-2.4,2-4v-0.1c0-0.1,0-0.1,0-0.2l0-10.5V62.2c0-0.2,0-0.5,0-0.7v0
			c0-0.5-0.2-1.3-0.4-1.9c0-0.1-0.1-0.2-0.1-0.3c0-0.1-0.1-0.1-0.1-0.2c0,0-0.5-0.8-1.2-1.6c-0.4-0.4-0.8-0.7-1.1-0.9l-1.7-1
			l-3.5-2.1l-81.9-47c-0.8-0.5-2.5-1.4-2.4-3c0,0-0.4-2.5,4.9-3.5"/>
		<linearGradient id="XMLID_113_" gradientUnits="userSpaceOnUse" x1="57.2763" y1="78.6972" x2="33.5056" y2="27.8349">
			<stop  offset="1.000478e-02" style="stop-color:#B9C814"/>
			<stop  offset="1" style="stop-color:#FF5411"/>
		</linearGradient>
		<path id="XMLID_11_" opacity="0.9" fill="url(#XMLID_113_)" d="M59.1,85.6c-1,0-1.8-1.9-2.3-3.1l-0.3-1l0,0L44.4,40.9l-0.9,2.6
			l12.7,42.7c0.2,0.6,1.1,3.3,3.1,3.3h0.1v-3.9C59.2,85.6,59.2,85.6,59.1,85.6z"/>
		<linearGradient id="XMLID_114_" gradientUnits="userSpaceOnUse" x1="62.7148" y1="13.1077" x2="66.0191" y2="33.1073">
			<stop  offset="0" style="stop-color:#FD9700"/>
			<stop  offset="1" style="stop-color:#FD9700"/>
		</linearGradient>
		<path id="XMLID_10_" fill="url(#XMLID_114_)" d="M72.7,49.3l-0.8,2.5l-13.7-46c-0.4-1.2-0.9-1.3-0.9-1.3V0c0,0,0.1,0,0.1,0
			c0,0,0,0,0.1,0c0.1,0,0.3,0.1,0.4,0.2v0c0.3,0.3,0.8,1,1.3,2.5L72.7,49.3z"/>
		<linearGradient id="XMLID_115_" gradientUnits="userSpaceOnUse" x1="55.7999" y1="6.8764" x2="55.7999" y2="6.8764">
			<stop  offset="0.176" style="stop-color:#B7C815"/>
			<stop  offset="1" style="stop-color:#539A32"/>
		</linearGradient>
		<path id="XMLID_9_" fill="url(#XMLID_115_)" d="M55.8,6.9"/>
		<linearGradient id="XMLID_116_" gradientUnits="userSpaceOnUse" x1="183.3618" y1="81.4485" x2="156.6678" y2="7.8096">
			<stop  offset="0" style="stop-color:#00E5B5"/>
			<stop  offset="0.4363" style="stop-color:#39B25C"/>
			<stop  offset="0.6624" style="stop-color:#539A32"/>
			<stop  offset="1" style="stop-color:#FED600"/>
		</linearGradient>
		<path id="XMLID_8_" fill="url(#XMLID_116_)" d="M148.1,87.8c-4.1,0-5.9-4.3-6.6-6.4l-23.9-79l-0.9,3l17.2,57.4l5.5,18.5
			c0.2,0.7,0.4,1.3,0.6,1.9c0,0,0,0,0,0.1c2.1,5.7,6.3,6.5,6.3,6.5h80.5c0.2,0,0.4,0,0.6,0c0,0,0,0,0,0c0,0,0.1,0,0.1,0
			c0.1,0,0.1,0,0.2,0c0.2-0.1,0.4-0.1,0.6-0.2c0.1-0.1,0.3-0.1,0.4-0.2c0.1-0.1,0.3-0.2,0.4-0.2c0.3-0.2,0.5-0.4,0.8-0.6
			c0,0,0-0.5,0-0.5L148.1,87.8z"/>
		<linearGradient id="XMLID_117_" gradientUnits="userSpaceOnUse" x1="30.8564" y1="35.9426" x2="14.3824" y2="109.1013">
			<stop  offset="0" style="stop-color:#FF5411"/>
			<stop  offset="1" style="stop-color:#EE1658"/>
		</linearGradient>
		<path id="XMLID_7_" opacity="0.9" fill="url(#XMLID_117_)" d="M32.6,0c-1.3,0-2.4,0.8-2.8,2L3,82.2l0,0l-2.5,7.4l7.8,0l14.5,0
			c2.1,0,4-1.4,4.7-3.4L57.3,0H32.6z"/>
		<linearGradient id="XMLID_118_" gradientUnits="userSpaceOnUse" x1="47.0312" y1="33.1062" x2="20.1004" y2="96.7368">
			<stop  offset="0" style="stop-color:#FD9700"/>
			<stop  offset="0.3263" style="stop-color:#FE5213"/>
			<stop  offset="1" style="stop-color:#EE1658"/>
		</linearGradient>
		<path id="XMLID_6_" fill="url(#XMLID_118_)" d="M55.5,3.3L28.7,82.7l-0.3,0.8c-1.9,5.6-5.4,6-5.4,6c1.4,0,2.5-0.4,3.4-1
			c1.7-1.1,2.6-2.9,3-4c0,0,0,0,0,0c0.2-0.5,0.3-0.8,0.3-0.9c0,0,0,0,0,0L55.6,7.4c0.1-0.4,0.3-0.9,0.5-1.2s0.2-0.6,0.3-0.6
			c0.3-0.5,0.6-1,1-1V0C57,0.1,56.4,0.7,55.5,3.3z"/>
		<linearGradient id="XMLID_119_" gradientUnits="userSpaceOnUse" x1="242.8167" y1="18.1" x2="133.0751" y2="18.1">
			<stop  offset="5.620217e-03" style="stop-color:#87B223"/>
			<stop  offset="1" style="stop-color:#28729F"/>
		</linearGradient>
		<path id="XMLID_5_" opacity="0.98" fill="url(#XMLID_119_)" d="M143.4,26.9h77.2c6.4,0,11.6-5.2,11.6-11.6V0h-10.4h-7.5H142
			c-3.4,0-6.2,2.8-6.2,6.2v21.2c0,0.2,0,0.5,0,0.7v0c0,0.5,0,1.2,0.3,1.9c0,0.1,0.1,0.2,0.1,0.2c0,0.1,0.1,0.2,0.1,0.3
			c0,0,0.5,0.9,1.2,1.7c0.4,0.4,0.9,0.7,1.2,0.9l1.8,1l3.5,2c-5-3.1-4.7-5.3-4.8-6.3C138.7,26.9,143.4,26.9,143.4,26.9z"/>
		<linearGradient id="XMLID_120_" gradientUnits="userSpaceOnUse" x1="210.0741" y1="79.8586" x2="181.2838" y2="56.149">
			<stop  offset="5.620217e-03" style="stop-color:#00E5B5"/>
			<stop  offset="1" style="stop-color:#28729F"/>
		</linearGradient>
		<path id="XMLID_4_" fill="url(#XMLID_120_)" d="M230.9,87.7c0,0,2.5-2.3-3.5-5.9c-6.5-3.8-86.2-49.4-86.2-49.4s-2.2-1.6-1.8-3.7
			h-3.4c0,0,0,3.3,4.6,5.9c5,2.8,84.9,48.6,84.9,48.6s3.5,2.1,2.8,3.4c-0.2,0.5-0.5,0.9-1.7,1.1l-0.2,1.7c0,0,0.9,0.1,1.9-0.2
			C229.2,89.2,230,88.7,230.9,87.7z"/>
	</g>
</g>
</svg>
